<svg xmlns="http://www.w3.org/2000/svg" viewBox="932.8 478.5 77 22" enable-background="new #ffffff"><g fill="#fff"><path d="M1001.4 490.1c.5.4 1 .8 1.6 1.3l1.9-.2c.3 0 .5 0 .6.2.1.1.1.4 0 .7-.2.6-.5 1.2-.7 1.8.3.6.5 1.1.8 1.7.3.6.2.9-.5.9s-1.3-.1-2-.1c-.5.4-1 .9-1.5 1.3-.4.4-.7.5-.9-.2-.2-.7-.4-1.4-.5-2-.5-.3-1-.6-1.6-.9-.4-.2-.6-.4-.6-.5 0-.2.1-.3.4-.5.6-.4 1.1-.7 1.7-1.1.1-.6.3-1.3.4-1.9.1-.7.4-.8.9-.5zm-.2.3c-.3-.2-.4-.2-.4.2-.1.7-.3 1.4-.4 2-.6.4-1.2.8-1.8 1.2-.2.1-.3.2-.3.2 0 .1.2.2.4.3.6.3 1.1.6 1.7 1 .2.7.4 1.4.6 2.2.1.3.2.2.4 0 .5-.5 1-.9 1.6-1.4.7 0 1.4.1 2.1.1.5 0 .4-.1.2-.5-.3-.6-.5-1.2-.8-1.8.2-.6.5-1.3.7-1.9.1-.2.1-.4.1-.4s-.2-.1-.4 0c-.7.1-1.4.1-2.1.2-.5-.5-1.1-1-1.6-1.4zM1001.3 490.3c.5.4 1.1.9 1.6 1.3.7-.1 1.3-.1 2-.2.5-.1.7.1.4.6-.2.6-.5 1.2-.7 1.8.3.6.5 1.2.8 1.8.3.6.1.7-.4.7-.7 0-1.4-.1-2-.1-.5.5-1 .9-1.5 1.4-.4.3-.5.4-.7-.1-.2-.7-.4-1.4-.6-2.1-.5-.3-1.1-.6-1.6-.9-.6-.4-.7-.5-.2-.8.6-.4 1.2-.7 1.7-1.1.1-.7.3-1.3.4-2 .2-.5.5-.6.8-.3zM1004 491.9c0-.3.2-.5.5-.5l.5-.1c.5-.1.7.1.4.6-.2.5-.4 1.1-.6 1.6 0 .1 0 .3 0 .4.2.5.5 1.1.7 1.6.3.6.1.7-.4.7-.6 0-1.2-.1-1.8-.1-.1 0-.3 0-.4.1-.3.2-.5.5-.8.7-.9.8-1.1 1.3-1.5-.5-.1-.3.1-.6.4-.6.2 0 .5-.1.7-.2 1.5-.4 2.3-2 2.3-3.7z"/></g><g enable-background="new" fill="#fff"><path d="M941.5 498c-.6 0-1.2-.1-1.7-.4s-.9-.5-1.2-.9-.6-.9-.7-1.4c-.2-.5-.2-1.1-.2-1.6 0-.4.1-.8.2-1.3s.3-1 .4-1.4c.2-.4.3-.8.6-1.1s.5-.7.8-1c.3-.3.6-.5 1-.7.4-.2.8-.2 1.3-.2.4 0 .7.1 1.1.2.3.1.6.3.8.5.2.2.4.5.6.8.1.3.2.7.2 1 0 .4-.1.9-.4 1.4-.3.5-.6.9-1 1.3s-.8.7-1.3 1-1.1.5-1.6.7c.1.2.2.3.3.4.1.1.2.2.3.3.1.1.2.1.3.1.1 0 .2 0 .4 0 .4 0 .8-.1 1.3-.2.4-.2.9-.4 1.3-.6.4-.2.8-.5 1.2-.8s.7-.5 1-.8l1.3 1.3c-.6.6-1.2 1.2-1.9 1.7-.3.2-.6.4-.9.6-.3.2-.7.4-1.1.5-.4.2-.8.3-1.1.4-.4.2-.8.2-1.3.2zm-1.3-4.8c.2 0 .5-.1.8-.2s.6-.3.8-.5c.2-.2.5-.4.7-.8.2-.3.4-.6.4-.8 0-.3-.1-.5-.2-.7s-.2-.3-.4-.3c-.3 0-.5.1-.7.2-.2.1-.4.2-.5.4-.1.2-.3.4-.3.6-.1.2-.2.5-.3.8-.1.3-.2.6-.2.8-.1.2-.1.3-.1.5zM963 485.2c0 .3-.1.7-.2 1s-.3.7-.5 1.1c-.2.3-.5.7-.9 1-.3.3-.8.6-1.2.9-.5.3-1 .5-1.7.6-.6.2-1.3.3-2.1.3.5.2.9.4 1.2.7.3.3.6.6.8.9.2.3.4.7.5 1.1.1.4.3.8.3 1.1.1.3.1.7.2 1 .1.3.2.6.3.9.1.3.2.5.4.6.1.2.3.2.6.2.2 0 .5 0 .8-.1s.6-.2.8-.3.6-.3.9-.5c.3-.2.5-.4.8-.6l1.2 2s-.1 0-.2.1-.3.2-.5.3c-.2.1-.5.3-.8.5-.3.2-.7.3-1 .5-.4.1-.8.3-1.2.4s-.9.1-1.3.1c-.5 0-.9-.1-1.3-.4-.4-.2-.6-.6-.9-1-.2-.4-.4-.9-.6-1.4-.2-.5-.3-1-.4-1.5-.1-.5-.2-1-.3-1.5-.1-.5-.2-1-.4-1.5-.1-.4-.3-.8-.5-1-.2-.2-.4-.4-.7-.4h-.7c-.2 1.5-.4 2.8-.6 4-.2 1.2-.4 2.2-.8 3-.3.8-.7 1.4-1.2 1.9-.5.4-1 .7-1.7.7-.5 0-1-.1-1.5-.3-.4-.2-.9-.5-1.2-.8-.4-.4-.7-.8-.9-1.3-.3-.5-.5-1-.7-1.5-.2-.6-.3-1.1-.4-1.7-.1-.6-.1-1.2-.1-1.8 0-1 .1-2.1.4-3.1.3-1 .6-2 1.1-2.8.5-.9 1.1-1.7 1.8-2.5s1.5-1.4 2.3-1.9c.9-.5 1.8-1 2.8-1.3 1-.3 2.1-.5 3.3-.5.5 0 1 0 1.5.1s1 .2 1.4.4c.5.2.9.4 1.3.7.4.3.7.6 1 .9.3.3.5.7.7 1.2 0 .6.1 1 .1 1.5zm-6.3-2.4c-1.1 0-2.1.2-3 .5-.9.3-1.6.7-2.3 1.3-.7.5-1.2 1.1-1.7 1.8s-.8 1.4-1.1 2.2c-.3.8-.5 1.5-.6 2.3-.1.8-.2 1.5-.2 2.2 0 .5 0 1.1.1 1.6.1.6.2 1 .4 1.5.2.4.5.8.8 1.1.3.3.7.4 1.2.4.2 0 .4-.1.6-.3s.3-.4.5-.7c.1-.3.3-.6.4-1 .1-.4.2-.8.2-1.2s.1-.9.1-1.3.1-.8.1-1.2c0-.4.1-.7.1-1 0-.3 0-.5 0-.7-.5-.2-.9-.5-1.2-.7s-.4-.4-.4-.7c0-.1 0-.2 0-.3 0-.1 0-.2.1-.3 0-.1.1-.2.1-.2s.1-.1.3-.1c0 0 .1 0 .3 0 .1 0 .3 0 .4 0 .2 0 .3 0 .4 0s.2 0 .3 0c0-.1 0-.3 0-.5s0-.4.1-.6c0-.2.1-.4.2-.7.1-.2.2-.4.3-.6.1-.2.3-.3.5-.4.2-.1.4-.2.7-.2.3 0 .6.1.7.2.1.2.2.4.2.6v.1c0 .3-.1.6-.2 1s-.3.9-.4 1.5c1.2 0 2.1-.1 2.9-.3.8-.2 1.4-.5 1.8-.8.4-.3.8-.7.9-1 .2-.4.3-.7.3-1.1 0-.3-.1-.6-.2-1s-.4-.6-.7-.8c-.3-.2-.7-.4-1.2-.6-.7 0-1.2 0-1.8 0z"/></g><path fill="#fff" d="M974.7 495.5c-.2.2-.4.5-.6.8s-.6.6-.9.8-.7.5-1 .7c-.4.2-.7.3-1.1.3-.4 0-.8-.1-1.1-.4s-.6-.7-.8-1.2c-.2.2-.4.4-.6.6s-.5.4-.8.5c-.3.2-.6.3-.9.4-.3.1-.6.2-.9.2-.3 0-.6-.1-.9-.2-.3-.1-.6-.3-.8-.6-.2-.2-.4-.6-.6-.9s-.2-.8-.2-1.2c0-.5.1-1 .2-1.6.1-.5.4-1.1.7-1.7s.6-1.2 1-1.6c.3-.5.7-.8 1.1-1.2.4-.3.8-.6 1.3-.8s.9-.3 1.4-.3c.2 0 .3 0 .4.1.1.1.2.1.2.2.1.1.1.2.2.2.1.1.1.1.2.2.1 0 .2.1.2.1.1 0 .2 0 .3 0 .1 0 .2 0 .2 0 .1 0 .2 0 .2 0 .1 0 .2 0 .3 0 .1 0 .2.1.2.1.1.1.1.2.2.3 0 .1.1.3.1.5 0 .3 0 .7-.1 1.1s-.1.8-.2 1.2c-.1.4-.2.9-.3 1.4-.1.5-.2 1-.2 1.3 0 .3 0 .6.1.7.1.2.2.3.4.3.1 0 .3 0 .4-.1.2-.1.3-.2.5-.3.2-.1.3-.2.5-.4.2-.1.3-.3.5-.4.3-.4.7-.8 1-1.2l.2 2.1zm-8.7-.8c0 .2 0 .3 0 .5s.1.3.1.4c.1.1.1.2.2.3s.2.1.4.1.5-.1.7-.3.4-.5.5-.8c.1-.3.3-.6.4-.9.1-.3.2-.6.2-.8l.8-3.3c-.3 0-.5.1-.8.2-.3.1-.5.3-.7.6-.2.2-.4.5-.6.8-.2.3-.4.7-.6 1.1-.2.4-.3.8-.4 1.2-.1.3-.2.6-.2.9zM981.9 495.7c-.7.4-1.2.7-1.7 1-.5.3-1 .5-1.4.7-.4.2-.7.3-1.1.4-.3.1-.6.1-.8.1-.5 0-1-.2-1.4-.5-.4-.3-.7-.8-1-1.3-.3-.6-.5-1.3-.6-2.1-.1-.8-.2-1.8-.2-2.8 0-.4 0-.8.1-1.3 0-.5.1-.9.1-1.4-.2 0-.4-.1-.5-.1s-.2-.1-.4-.1c-.1 0-.3-.1-.5-.1s-.5-.1-.8-.1c-.2 0-.3-.1-.4-.1-.1-.1-.2-.1-.2-.2s-.1-.2-.1-.3c0-.1 0-.2 0-.2 0-.1.1-.2.2-.2.1-.1.3-.1.5-.1s.4 0 .7 0 .5 0 .7 0 .4 0 .6 0 .3 0 .4 0c.2-.9.4-1.8.7-2.6.3-.9.6-1.6.9-2.3s.7-1.2 1.1-1.6c.4-.4.8-.6 1.3-.6.3 0 .6.1.8.2s.4.4.6.6.3.6.4.9c.1.4.1.7.1 1.1 0 .3 0 .7-.1 1-.1.4-.2.7-.4 1.1-.2.4-.4.8-.6 1.1-.2.4-.5.8-.7 1.1.1 0 .2 0 .3 0 .1 0 .3 0 .5 0s.4 0 .6 0c.2 0 .4 0 .6 0 .2 0 .4 0 .6 0s.3 0 .4 0c.1 0 .2.1.3.2.1.1.1.3.1.5 0 .3-.1.5-.2.6-.1.2-.3.2-.4.2h-3.9c-.2.3-.4.5-.6.8s-.4.5-.6.7c0 .4-.1.8-.1 1.2 0 .2 0 .4 0 .5 0 .2 0 .4 0 .6 0 .2 0 .4 0 .5 0 .2 0 .3 0 .5 0 .4 0 .7.1.9.1.2.2.5.3.6s.3.3.5.3c.2.1.4.1.6.1.1 0 .3 0 .5-.1s.4-.2.7-.3c.3-.1.5-.3.8-.4.3-.2.6-.3.8-.5.3-.2.5-.4.8-.6.3-.2.5-.4.7-.7v3.1zm-3.2-12.8c0-.1 0-.2 0-.2 0-.1 0-.2-.1-.3 0-.1-.1-.1-.2-.2s-.2-.1-.3-.1c-.2 0-.4.2-.5.5-.2.3-.4.7-.5 1.2-.2.5-.3 1-.5 1.6-.1.6-.3 1.1-.4 1.7.1 0 .2 0 .3 0 .1 0 .2 0 .3 0 .2-.3.4-.7.6-1.1.2-.4.4-.8.6-1.2.2-.4.3-.7.4-1.1.2-.3.3-.6.3-.8zM984.5 498c-.6 0-1.2-.1-1.7-.4-.5-.2-.9-.5-1.2-.9s-.6-.9-.7-1.4c-.2-.5-.2-1.1-.2-1.6 0-.4.1-.8.2-1.3s.3-1 .4-1.4c.2-.4.3-.8.6-1.1s.5-.7.8-1 .6-.5 1-.7c.4-.2.8-.2 1.3-.2.4 0 .7.1 1.1.2.3.1.6.3.8.5.2.2.4.5.6.8.1.3.2.7.2 1 0 .4-.1.9-.4 1.4s-.6.9-1 1.3-.8.7-1.3 1-1.1.5-1.6.7c.1.2.2.3.3.4.1.1.2.2.3.3.1.1.2.1.3.1.1 0 .2 0 .4 0 .4 0 .8-.1 1.3-.2.4-.2.9-.4 1.3-.6s.8-.5 1.2-.8c.4-.3.7-.5 1-.8l1.3 1.3c-.6.6-1.2 1.2-1.9 1.7-.3.2-.6.4-.9.6-.3.2-.7.4-1.1.5-.4.2-.8.3-1.1.4-.4.2-.8.2-1.3.2zm-1.3-4.8c.2 0 .5-.1.8-.2.3-.1.6-.3.8-.5.2-.2.5-.4.7-.8s.4-.6.4-.8c0-.3-.1-.5-.2-.7s-.2-.3-.4-.3c-.3 0-.5.1-.7.2-.2.1-.4.2-.5.4-.1.2-.3.4-.3.6-.1.2-.2.5-.3.8-.1.3-.2.6-.2.8-.1.2-.1.3-.1.5zM1000.7 495.9c-.5.4-1 .7-1.4 1.1-.2.1-.4.3-.6.4-.2.1-.4.2-.6.3-.2.1-.4.2-.6.2-.2.1-.4.1-.5.1-.1 0-.2 0-.4-.1-.2 0-.4-.1-.6-.3s-.4-.3-.7-.6c-.2-.3-.4-.6-.6-1-.3.3-.5.5-.8.7s-.6.4-.9.6c-.3.2-.6.3-.9.4s-.6.2-.9.2c-.4 0-.8-.1-1.1-.3-.3-.2-.6-.4-.8-.7-.2-.3-.4-.6-.5-1-.1-.4-.2-.8-.2-1.2 0-.4.1-.9.2-1.3s.3-.9.5-1.3.4-.9.7-1.3c.3-.5.6-.9 1-1.3s.9-.7 1.3-.9c.5-.2.9-.3 1.4-.4 0-.9.1-1.7.3-2.3s.3-1.4.5-2.2.4-1.5.7-2.1c.3-.6.6-1.2 1-1.7s.7-.8 1.2-1.1c.4-.3.8-.4 1.3-.4.3 0 .6.1.8.2.2.2.4.4.5.7.1.3.2.6.3 1 .1.4.1.7.1 1.1 0 .2 0 .5 0 .7 0 1-.2 1.9-.4 2.7s-.6 1.7-.8 2.5-.6 1.6-1 2.4c-.6 1.2-1 2.1-1.1 2.5 0 .1-.1.2-.1.3 0 .1-.1.3-.1.4 0 .2-.1.3-.1.5s0 .3 0 .5 0 .4 0 .6.1.3.1.5.1.3.2.3c.1.1.2.1.3.1.1 0 .3 0 .4-.1s.3-.1.5-.2.3-.2.5-.3c.2-.1.3-.2.5-.3.4-.3.8-.6 1.2-.9l.2 2.3zm-7-6c-.4.2-.8.5-1.2.9-.3.4-.6.8-.9 1.4-.2.6-.4 1.1-.5 1.5-.1.4-.2.8-.2 1.1 0 .1 0 .2 0 .3 0 .1.1.2.2.3s.2.2.3.2.3.1.6.1c.1 0 .2 0 .4-.1.1-.1.2-.1.3-.2.1-.1.2-.2.3-.3s.2-.2.3-.3c.2-.3.4-.6.5-.9 0-.1 0-.2-.1-.5 0-.2 0-.5 0-1 0-.4 0-.8 0-1 0-.3 0-.5 0-.7 0-.2 0-.4 0-.6 0-.1 0-.2 0-.2zm4.7-6.9c0-.5.1-.8.1-1.1 0-.4 0-.6-.1-.8s-.2-.2-.3-.2c-.2 0-.4.1-.6.4-.2.3-.3.6-.4 1.1s-.2.9-.4 1.4c-.1.5-.2 1-.3 1.5-.1.5-.1.9-.1 1.3s-.1.7-.1.8c0 .3-.1.7-.1 1 0 .3 0 .6 0 .9 0 .3 0 .5 0 .7 0 .2 0 .3 0 .4v.1c.4-.9.7-1.8 1-2.7.1-.4.3-.8.4-1.2.1-.4.3-.8.4-1.2s.2-.8.3-1.2c.1-.5.2-.8.2-1.2z" enable-background="new"/></svg>
